<svg width="33" height="33" fill="none" xmlns="http://www.w3.org/2000/svg"><path fill-rule="evenodd" clip-rule="evenodd" d="M21.833 4.824H11.167A6.667 6.667 0 0 0 4.5 11.49v10.667a6.667 6.667 0 0 0 6.667 6.667h10.666a6.667 6.667 0 0 0 6.667-6.667V11.49a6.667 6.667 0 0 0-6.667-6.666Zm4.334 17.333a4.347 4.347 0 0 1-4.334 4.333H11.167a4.347 4.347 0 0 1-4.334-4.333V11.49a4.347 4.347 0 0 1 4.334-4.333h10.666a4.347 4.347 0 0 1 4.334 4.333v10.667Zm-3.334-10.333a1.333 1.333 0 1 0 0-2.667 1.333 1.333 0 0 0 0 2.667Zm-6.333-1a6 6 0 1 0 6 6 5.986 5.986 0 0 0-6-6Zm-3.667 6a3.667 3.667 0 1 0 7.334 0 3.667 3.667 0 0 0-7.334 0Z" fill="#EEE"/></svg>