<svg width="33" height="33" fill="none" xmlns="http://www.w3.org/2000/svg"><path fill-rule="evenodd" clip-rule="evenodd" d="M6.5 4.824a2 2 0 0 0-2 2v20a2 2 0 0 0 2 2h20a2 2 0 0 0 2-2v-20a2 2 0 0 0-2-2h-20Zm5.361 5.337c.007 1.275-.947 2.06-2.08 2.055-1.066-.006-1.996-.855-1.99-2.053.005-1.127.896-2.033 2.053-2.007 1.173.027 2.024.887 2.017 2.005Zm5.012 3.678H13.51v11.414h3.551v-1.787c-.002-1.352-.003-2.705.004-4.056.002-.328.017-.67.101-.983.317-1.17 1.37-1.925 2.543-1.74.754.119 1.252.555 1.462 1.266.13.445.188.923.194 1.386.015 1.397.012 2.793.01 4.19l-.001 1.48v.242h3.562v-2.082c-.001-1.506-.002-3.012.002-4.518a8.051 8.051 0 0 0-.238-2.01c-.25-.98-.765-1.79-1.603-2.374-.594-.416-1.247-.684-1.976-.714a18.391 18.391 0 0 1-.251-.013c-.373-.02-.752-.04-1.109.031-1.02.205-1.916.671-2.593 1.495-.079.094-.155.19-.27.333l-.026.032V13.84ZM8.076 25.256h3.534v-11.41H8.076v11.41Z" fill="#EEE"/></svg>