<svg width="239" height="40" fill="none" xmlns="http://www.w3.org/2000/svg"><g clip-path="url('#clip0_6_95')" fill="#EAEAFD"><path d="M151.506 30.787c-5.812 0-8.928-4.311-8.928-10.096 0-6.296 3.689-10.095 8.944-10.095 4.804 0 6.711 2.078 8.059 5.769l-4.913 1.907c-.698-1.814-1.364-2.962-3.162-2.962-2.263 0-3.239 2.264-3.239 5.366 0 2.993.945 5.366 3.301 5.366 1.705 0 2.433-.93 3.487-2.776l4.588 2.435c-1.302 2.59-3.487 5.086-8.137 5.086Zm20.522-9.46c-.636-.698-1.364-1.225-2.341-1.225-1.224 0-1.984.59-1.984 2.373v8.002h-5.037V15.791h5.037v1.07c.868-.837 1.845-1.365 3.131-1.365 1.07 0 1.783.248 2.372.62l-1.178 5.211Zm11.965 9.15V29.5c-.899.698-1.953 1.287-3.658 1.287-3.224 0-4.758-2.155-4.758-6.017v-8.98h5.068v8.344c0 1.908.636 2.404 1.674 2.404 1.039 0 1.674-.496 1.674-2.357v-8.39h5.069v14.686h-5.069Zm17.112 0v-8.343c0-1.908-.636-2.404-1.674-2.404-1.07 0-1.705.496-1.705 2.357v8.39h-5.037V15.79h5.037v.977c.93-.698 1.953-1.288 3.689-1.288 3.224 0 4.758 2.156 4.758 6.018v8.979h-5.068Zm14.88.31c-4.309 0-6.882-2.745-6.882-7.692 0-4.513 2.294-7.614 6.99-7.614 2.775 0 4.355 1.287 5.642 3.35l-3.472 2.636c-.697-1.287-1.178-1.908-2.263-1.908-1.286 0-1.937 1.287-1.937 3.613 0 2.327.697 3.52 2.077 3.52.945 0 1.627-.526 2.541-1.907l3.193 2.497c-1.705 2.512-3.286 3.505-5.889 3.505Zm17.158-.31v-8.343c0-1.908-.636-2.404-1.674-2.404-1.07 0-1.705.496-1.705 2.357v8.39h-5.038V12.084l5.038-2.016v6.7c.93-.698 1.953-1.287 3.689-1.287 3.224 0 4.758 2.155 4.758 6.017v8.979h-5.068Z"/><path d="M151.506 30.787c-5.812 0-8.928-4.311-8.928-10.096 0-6.296 3.689-10.095 8.944-10.095 4.804 0 6.711 2.078 8.059 5.769l-4.913 1.907c-.698-1.814-1.364-2.962-3.162-2.962-2.263 0-3.239 2.264-3.239 5.366 0 2.993.945 5.366 3.301 5.366 1.705 0 2.433-.93 3.487-2.776l4.588 2.435c-1.302 2.59-3.487 5.086-8.137 5.086Zm20.522-9.46c-.636-.698-1.364-1.225-2.341-1.225-1.224 0-1.984.59-1.984 2.373v8.002h-5.037V15.791h5.037v1.07c.868-.837 1.845-1.365 3.131-1.365 1.07 0 1.783.248 2.372.62l-1.178 5.211Zm11.965 9.15V29.5c-.899.698-1.953 1.287-3.658 1.287-3.224 0-4.758-2.155-4.758-6.017v-8.98h5.068v8.344c0 1.908.636 2.404 1.674 2.404 1.039 0 1.674-.496 1.674-2.357v-8.39h5.069v14.686h-5.069Zm17.112 0v-8.343c0-1.908-.636-2.404-1.674-2.404-1.07 0-1.705.496-1.705 2.357v8.39h-5.037V15.79h5.037v.977c.93-.698 1.953-1.288 3.689-1.288 3.224 0 4.758 2.156 4.758 6.018v8.979h-5.068Zm14.88.31c-4.309 0-6.882-2.745-6.882-7.692 0-4.513 2.294-7.614 6.99-7.614 2.775 0 4.355 1.287 5.642 3.35l-3.472 2.636c-.697-1.287-1.178-1.908-2.263-1.908-1.286 0-1.937 1.287-1.937 3.613 0 2.327.697 3.52 2.077 3.52.945 0 1.627-.526 2.541-1.907l3.193 2.497c-1.705 2.512-3.286 3.505-5.889 3.505Zm17.158-.31v-8.343c0-1.908-.636-2.404-1.674-2.404-1.07 0-1.705.496-1.705 2.357v8.39h-5.038V12.084l5.038-2.016v6.7c.93-.698 1.953-1.287 3.689-1.287 3.224 0 4.758 2.155 4.758 6.017v8.979h-5.068Z"/><path d="M151.506 30.787c-5.812 0-8.928-4.311-8.928-10.096 0-6.296 3.689-10.095 8.944-10.095 4.804 0 6.711 2.078 8.059 5.769l-4.913 1.907c-.698-1.814-1.364-2.962-3.162-2.962-2.263 0-3.239 2.264-3.239 5.366 0 2.993.945 5.366 3.301 5.366 1.705 0 2.433-.93 3.487-2.776l4.588 2.435c-1.302 2.59-3.487 5.086-8.137 5.086Zm20.522-9.46c-.636-.698-1.364-1.225-2.341-1.225-1.224 0-1.984.59-1.984 2.373v8.002h-5.037V15.791h5.037v1.07c.868-.837 1.845-1.365 3.131-1.365 1.07 0 1.783.248 2.372.62l-1.178 5.211Zm11.965 9.15V29.5c-.899.698-1.953 1.287-3.658 1.287-3.224 0-4.758-2.155-4.758-6.017v-8.98h5.068v8.344c0 1.908.636 2.404 1.674 2.404 1.039 0 1.674-.496 1.674-2.357v-8.39h5.069v14.686h-5.069Zm17.112 0v-8.343c0-1.908-.636-2.404-1.674-2.404-1.07 0-1.705.496-1.705 2.357v8.39h-5.037V15.79h5.037v.977c.93-.698 1.953-1.288 3.689-1.288 3.224 0 4.758 2.156 4.758 6.018v8.979h-5.068Zm14.88.31c-4.309 0-6.882-2.745-6.882-7.692 0-4.513 2.294-7.614 6.99-7.614 2.775 0 4.355 1.287 5.642 3.35l-3.472 2.636c-.697-1.287-1.178-1.908-2.263-1.908-1.286 0-1.937 1.287-1.937 3.613 0 2.327.697 3.52 2.077 3.52.945 0 1.627-.526 2.541-1.907l3.193 2.497c-1.705 2.512-3.286 3.505-5.889 3.505Zm17.158-.31v-8.343c0-1.908-.636-2.404-1.674-2.404-1.07 0-1.705.496-1.705 2.357v8.39h-5.038V12.084l5.038-2.016v6.7c.93-.698 1.953-1.287 3.689-1.287 3.224 0 4.758 2.155 4.758 6.017v8.979h-5.068Z"/><path d="M151.506 30.787c-5.812 0-8.928-4.311-8.928-10.096 0-6.296 3.689-10.095 8.944-10.095 4.804 0 6.711 2.078 8.059 5.769l-4.913 1.907c-.698-1.814-1.364-2.962-3.162-2.962-2.263 0-3.239 2.264-3.239 5.366 0 2.993.945 5.366 3.301 5.366 1.705 0 2.433-.93 3.487-2.776l4.588 2.435c-1.302 2.59-3.487 5.086-8.137 5.086Zm20.522-9.46c-.636-.698-1.364-1.225-2.341-1.225-1.224 0-1.984.59-1.984 2.373v8.002h-5.037V15.791h5.037v1.07c.868-.837 1.845-1.365 3.131-1.365 1.07 0 1.783.248 2.372.62l-1.178 5.211Zm11.965 9.15V29.5c-.899.698-1.953 1.287-3.658 1.287-3.224 0-4.758-2.155-4.758-6.017v-8.98h5.068v8.344c0 1.908.636 2.404 1.674 2.404 1.039 0 1.674-.496 1.674-2.357v-8.39h5.069v14.686h-5.069Zm17.112 0v-8.343c0-1.908-.636-2.404-1.674-2.404-1.07 0-1.705.496-1.705 2.357v8.39h-5.037V15.79h5.037v.977c.93-.698 1.953-1.288 3.689-1.288 3.224 0 4.758 2.156 4.758 6.018v8.979h-5.068Zm14.88.31c-4.309 0-6.882-2.745-6.882-7.692 0-4.513 2.294-7.614 6.99-7.614 2.775 0 4.355 1.287 5.642 3.35l-3.472 2.636c-.697-1.287-1.178-1.908-2.263-1.908-1.286 0-1.937 1.287-1.937 3.613 0 2.327.697 3.52 2.077 3.52.945 0 1.627-.526 2.541-1.907l3.193 2.497c-1.705 2.512-3.286 3.505-5.889 3.505Zm17.158-.31v-8.343c0-1.908-.636-2.404-1.674-2.404-1.07 0-1.705.496-1.705 2.357v8.39h-5.038V12.084l5.038-2.016v6.7c.93-.698 1.953-1.287 3.689-1.287 3.224 0 4.758 2.155 4.758 6.017v8.979h-5.068Z"/><path d="M151.506 30.787c-5.812 0-8.928-4.311-8.928-10.096 0-6.296 3.689-10.095 8.944-10.095 4.804 0 6.711 2.078 8.059 5.769l-4.913 1.907c-.698-1.814-1.364-2.962-3.162-2.962-2.263 0-3.239 2.264-3.239 5.366 0 2.993.945 5.366 3.301 5.366 1.705 0 2.433-.93 3.487-2.776l4.588 2.435c-1.302 2.59-3.487 5.086-8.137 5.086Zm20.522-9.46c-.636-.698-1.364-1.225-2.341-1.225-1.224 0-1.984.59-1.984 2.373v8.002h-5.037V15.791h5.037v1.07c.868-.837 1.845-1.365 3.131-1.365 1.07 0 1.783.248 2.372.62l-1.178 5.211Zm11.965 9.15V29.5c-.899.698-1.953 1.287-3.658 1.287-3.224 0-4.758-2.155-4.758-6.017v-8.98h5.068v8.344c0 1.908.636 2.404 1.674 2.404 1.039 0 1.674-.496 1.674-2.357v-8.39h5.069v14.686h-5.069Zm17.112 0v-8.343c0-1.908-.636-2.404-1.674-2.404-1.07 0-1.705.496-1.705 2.357v8.39h-5.037V15.79h5.037v.977c.93-.698 1.953-1.288 3.689-1.288 3.224 0 4.758 2.156 4.758 6.018v8.979h-5.068Zm14.88.31c-4.309 0-6.882-2.745-6.882-7.692 0-4.513 2.294-7.614 6.99-7.614 2.775 0 4.355 1.287 5.642 3.35l-3.472 2.636c-.697-1.287-1.178-1.908-2.263-1.908-1.286 0-1.937 1.287-1.937 3.613 0 2.327.697 3.52 2.077 3.52.945 0 1.627-.526 2.541-1.907l3.193 2.497c-1.705 2.512-3.286 3.505-5.889 3.505Zm17.158-.31v-8.343c0-1.908-.636-2.404-1.674-2.404-1.07 0-1.705.496-1.705 2.357v8.39h-5.038V12.084l5.038-2.016v6.7c.93-.698 1.953-1.287 3.689-1.287 3.224 0 4.758 2.155 4.758 6.017v8.979h-5.068Z"/><path d="M151.506 30.787c-5.812 0-8.928-4.311-8.928-10.096 0-6.296 3.689-10.095 8.944-10.095 4.804 0 6.711 2.078 8.059 5.769l-4.913 1.907c-.698-1.814-1.364-2.962-3.162-2.962-2.263 0-3.239 2.264-3.239 5.366 0 2.993.945 5.366 3.301 5.366 1.705 0 2.433-.93 3.487-2.776l4.588 2.435c-1.302 2.59-3.487 5.086-8.137 5.086Zm20.522-9.46c-.636-.698-1.364-1.225-2.341-1.225-1.224 0-1.984.59-1.984 2.373v8.002h-5.037V15.791h5.037v1.07c.868-.837 1.845-1.365 3.131-1.365 1.07 0 1.783.248 2.372.62l-1.178 5.211Zm11.965 9.15V29.5c-.899.698-1.953 1.287-3.658 1.287-3.224 0-4.758-2.155-4.758-6.017v-8.98h5.068v8.344c0 1.908.636 2.404 1.674 2.404 1.039 0 1.674-.496 1.674-2.357v-8.39h5.069v14.686h-5.069Zm17.112 0v-8.343c0-1.908-.636-2.404-1.674-2.404-1.07 0-1.705.496-1.705 2.357v8.39h-5.037V15.79h5.037v.977c.93-.698 1.953-1.288 3.689-1.288 3.224 0 4.758 2.156 4.758 6.018v8.979h-5.068Zm14.88.31c-4.309 0-6.882-2.745-6.882-7.692 0-4.513 2.294-7.614 6.99-7.614 2.775 0 4.355 1.287 5.642 3.35l-3.472 2.636c-.697-1.287-1.178-1.908-2.263-1.908-1.286 0-1.937 1.287-1.937 3.613 0 2.327.697 3.52 2.077 3.52.945 0 1.627-.526 2.541-1.907l3.193 2.497c-1.705 2.512-3.286 3.505-5.889 3.505Zm17.158-.31v-8.343c0-1.908-.636-2.404-1.674-2.404-1.07 0-1.705.496-1.705 2.357v8.39h-5.038V12.084l5.038-2.016v6.7c.93-.698 1.953-1.287 3.689-1.287 3.224 0 4.758 2.155 4.758 6.017v8.979h-5.068ZM89.725 15.62v14.856H84.3V15.62h-5.487v-4.73h16.383v4.73h-5.471Zm18.15 8.948h-8.618c.17 1.628 1.116 2.342 2.495 2.342 1.287 0 2.356-.28 3.798-1.04l1.922 3.226c-1.814 1.07-3.689 1.675-5.983 1.675-4.418 0-6.851-3.132-6.851-7.645 0-5.071 2.852-7.661 6.711-7.661 4.03 0 6.541 2.652 6.541 8.11 0 .435 0 .745-.015.993Zm-6.665-5.366c-1.147 0-1.783.791-1.953 2.234h4.2c-.263-1.49-.759-2.234-2.247-2.234Zm16.026 11.585c-4.309 0-6.881-2.745-6.881-7.692 0-4.513 2.293-7.615 6.99-7.615 2.774 0 4.355 1.287 5.642 3.35l-3.472 2.636c-.698-1.287-1.178-1.907-2.263-1.907-1.287 0-1.938 1.287-1.938 3.613s.698 3.52 2.077 3.52c.946 0 1.628-.527 2.542-1.907l3.193 2.497c-1.705 2.512-3.286 3.505-5.89 3.505Zm17.158-.31v-8.344c0-1.907-.635-2.403-1.674-2.403-1.069 0-1.704.496-1.704 2.357v8.39h-5.038V12.084l5.038-2.016v6.7c.929-.698 1.952-1.288 3.688-1.288 3.224 0 4.759 2.156 4.759 6.017v8.98h-5.069ZM.292 2.5v11.197h11.19v22.378h11.176V13.697h11.19V2.5H.292Zm44.732 22.378V13.697H33.848v22.378H67.39V24.878H45.025ZM67.389 2.5H45.025v11.197h22.365V2.5Z"/><path d="M89.725 15.62v14.856H84.3V15.62h-5.487v-4.73h16.383v4.73h-5.471Zm18.15 8.948h-8.618c.17 1.628 1.116 2.342 2.495 2.342 1.287 0 2.356-.28 3.798-1.04l1.922 3.226c-1.814 1.07-3.689 1.675-5.983 1.675-4.418 0-6.851-3.132-6.851-7.645 0-5.071 2.852-7.661 6.711-7.661 4.03 0 6.541 2.652 6.541 8.11 0 .435 0 .745-.015.993Zm-6.665-5.366c-1.147 0-1.783.791-1.953 2.234h4.2c-.263-1.49-.759-2.234-2.247-2.234Zm16.026 11.585c-4.309 0-6.881-2.745-6.881-7.692 0-4.513 2.293-7.615 6.99-7.615 2.774 0 4.355 1.287 5.642 3.35l-3.472 2.636c-.698-1.287-1.178-1.907-2.263-1.907-1.287 0-1.938 1.287-1.938 3.613s.698 3.52 2.077 3.52c.946 0 1.628-.527 2.542-1.907l3.193 2.497c-1.705 2.512-3.286 3.505-5.89 3.505Zm17.158-.31v-8.344c0-1.907-.635-2.403-1.674-2.403-1.069 0-1.704.496-1.704 2.357v8.39h-5.038V12.084l5.038-2.016v6.7c.929-.698 1.952-1.288 3.688-1.288 3.224 0 4.759 2.156 4.759 6.017v8.98h-5.069ZM.292 2.5v11.197h11.19v22.378h11.176V13.697h11.19V2.5H.292Zm44.732 22.378V13.697H33.848v22.378H67.39V24.878H45.025ZM67.389 2.5H45.025v11.197h22.365V2.5Z"/><path d="M89.725 15.62v14.856H84.3V15.62h-5.487v-4.73h16.383v4.73h-5.471Zm18.15 8.948h-8.618c.17 1.628 1.116 2.342 2.495 2.342 1.287 0 2.356-.28 3.798-1.04l1.922 3.226c-1.814 1.07-3.689 1.675-5.983 1.675-4.418 0-6.851-3.132-6.851-7.645 0-5.071 2.852-7.661 6.711-7.661 4.03 0 6.541 2.652 6.541 8.11 0 .435 0 .745-.015.993Zm-6.665-5.366c-1.147 0-1.783.791-1.953 2.234h4.2c-.263-1.49-.759-2.234-2.247-2.234Zm16.026 11.585c-4.309 0-6.881-2.745-6.881-7.692 0-4.513 2.293-7.615 6.99-7.615 2.774 0 4.355 1.287 5.642 3.35l-3.472 2.636c-.698-1.287-1.178-1.907-2.263-1.907-1.287 0-1.938 1.287-1.938 3.613s.698 3.52 2.077 3.52c.946 0 1.628-.527 2.542-1.907l3.193 2.497c-1.705 2.512-3.286 3.505-5.89 3.505Zm17.158-.31v-8.344c0-1.907-.635-2.403-1.674-2.403-1.069 0-1.704.496-1.704 2.357v8.39h-5.038V12.084l5.038-2.016v6.7c.929-.698 1.952-1.288 3.688-1.288 3.224 0 4.759 2.156 4.759 6.017v8.98h-5.069ZM.292 2.5v11.197h11.19v22.378h11.176V13.697h11.19V2.5H.292Zm44.732 22.378V13.697H33.848v22.378H67.39V24.878H45.025ZM67.389 2.5H45.025v11.197h22.365V2.5Z"/><path d="M89.725 15.62v14.856H84.3V15.62h-5.487v-4.73h16.383v4.73h-5.471Zm18.15 8.948h-8.618c.17 1.628 1.116 2.342 2.495 2.342 1.287 0 2.356-.28 3.798-1.04l1.922 3.226c-1.814 1.07-3.689 1.675-5.983 1.675-4.418 0-6.851-3.132-6.851-7.645 0-5.071 2.852-7.661 6.711-7.661 4.03 0 6.541 2.652 6.541 8.11 0 .435 0 .745-.015.993Zm-6.665-5.366c-1.147 0-1.783.791-1.953 2.234h4.2c-.263-1.49-.759-2.234-2.247-2.234Zm16.026 11.585c-4.309 0-6.881-2.745-6.881-7.692 0-4.513 2.293-7.615 6.99-7.615 2.774 0 4.355 1.287 5.642 3.35l-3.472 2.636c-.698-1.287-1.178-1.907-2.263-1.907-1.287 0-1.938 1.287-1.938 3.613s.698 3.52 2.077 3.52c.946 0 1.628-.527 2.542-1.907l3.193 2.497c-1.705 2.512-3.286 3.505-5.89 3.505Zm17.158-.31v-8.344c0-1.907-.635-2.403-1.674-2.403-1.069 0-1.704.496-1.704 2.357v8.39h-5.038V12.084l5.038-2.016v6.7c.929-.698 1.952-1.288 3.688-1.288 3.224 0 4.759 2.156 4.759 6.017v8.98h-5.069ZM.292 2.5v11.197h11.19v22.378h11.176V13.697h11.19V2.5H.292Zm44.732 22.378V13.697H33.848v22.378H67.39V24.878H45.025ZM67.389 2.5H45.025v11.197h22.365V2.5Z"/><path d="M89.725 15.62v14.856H84.3V15.62h-5.487v-4.73h16.383v4.73h-5.471Zm18.15 8.948h-8.618c.17 1.628 1.116 2.342 2.495 2.342 1.287 0 2.356-.28 3.798-1.04l1.922 3.226c-1.814 1.07-3.689 1.675-5.983 1.675-4.418 0-6.851-3.132-6.851-7.645 0-5.071 2.852-7.661 6.711-7.661 4.03 0 6.541 2.652 6.541 8.11 0 .435 0 .745-.015.993Zm-6.665-5.366c-1.147 0-1.783.791-1.953 2.234h4.2c-.263-1.49-.759-2.234-2.247-2.234Zm16.026 11.585c-4.309 0-6.881-2.745-6.881-7.692 0-4.513 2.293-7.615 6.99-7.615 2.774 0 4.355 1.287 5.642 3.35l-3.472 2.636c-.698-1.287-1.178-1.907-2.263-1.907-1.287 0-1.938 1.287-1.938 3.613s.698 3.52 2.077 3.52c.946 0 1.628-.527 2.542-1.907l3.193 2.497c-1.705 2.512-3.286 3.505-5.89 3.505Zm17.158-.31v-8.344c0-1.907-.635-2.403-1.674-2.403-1.069 0-1.704.496-1.704 2.357v8.39h-5.038V12.084l5.038-2.016v6.7c.929-.698 1.952-1.288 3.688-1.288 3.224 0 4.759 2.156 4.759 6.017v8.98h-5.069ZM.292 2.5v11.197h11.19v22.378h11.176V13.697h11.19V2.5H.292Zm44.732 22.378V13.697H33.848v22.378H67.39V24.878H45.025ZM67.389 2.5H45.025v11.197h22.365V2.5Z"/><path d="M89.725 15.62v14.856H84.3V15.62h-5.487v-4.73h16.383v4.73h-5.471Zm18.15 8.948h-8.618c.17 1.628 1.116 2.342 2.495 2.342 1.287 0 2.356-.28 3.798-1.04l1.922 3.226c-1.814 1.07-3.689 1.675-5.983 1.675-4.418 0-6.851-3.132-6.851-7.645 0-5.071 2.852-7.661 6.711-7.661 4.03 0 6.541 2.652 6.541 8.11 0 .435 0 .745-.015.993Zm-6.665-5.366c-1.147 0-1.783.791-1.953 2.234h4.2c-.263-1.49-.759-2.234-2.247-2.234Zm16.026 11.585c-4.309 0-6.881-2.745-6.881-7.692 0-4.513 2.293-7.615 6.99-7.615 2.774 0 4.355 1.287 5.642 3.35l-3.472 2.636c-.698-1.287-1.178-1.907-2.263-1.907-1.287 0-1.938 1.287-1.938 3.613s.698 3.52 2.077 3.52c.946 0 1.628-.527 2.542-1.907l3.193 2.497c-1.705 2.512-3.286 3.505-5.89 3.505Zm17.158-.31v-8.344c0-1.907-.635-2.403-1.674-2.403-1.069 0-1.704.496-1.704 2.357v8.39h-5.038V12.084l5.038-2.016v6.7c.929-.698 1.952-1.288 3.688-1.288 3.224 0 4.759 2.156 4.759 6.017v8.98h-5.069ZM.292 2.5v11.197h11.19v22.378h11.176V13.697h11.19V2.5H.292Zm44.732 22.378V13.697H33.848v22.378H67.39V24.878H45.025ZM67.389 2.5H45.025v11.197h22.365V2.5Z"/><path d="M89.725 15.62v14.856H84.3V15.62h-5.487v-4.73h16.383v4.73h-5.471Zm18.15 8.948h-8.618c.17 1.628 1.116 2.342 2.495 2.342 1.287 0 2.356-.28 3.798-1.04l1.922 3.226c-1.814 1.07-3.689 1.675-5.983 1.675-4.418 0-6.851-3.132-6.851-7.645 0-5.071 2.852-7.661 6.711-7.661 4.03 0 6.541 2.652 6.541 8.11 0 .435 0 .745-.015.993Zm-6.665-5.366c-1.147 0-1.783.791-1.953 2.234h4.2c-.263-1.49-.759-2.234-2.247-2.234Zm16.026 11.585c-4.309 0-6.881-2.745-6.881-7.692 0-4.513 2.293-7.615 6.99-7.615 2.774 0 4.355 1.287 5.642 3.35l-3.472 2.636c-.698-1.287-1.178-1.907-2.263-1.907-1.287 0-1.938 1.287-1.938 3.613s.698 3.52 2.077 3.52c.946 0 1.628-.527 2.542-1.907l3.193 2.497c-1.705 2.512-3.286 3.505-5.89 3.505Zm17.158-.31v-8.344c0-1.907-.635-2.403-1.674-2.403-1.069 0-1.704.496-1.704 2.357v8.39h-5.038V12.084l5.038-2.016v6.7c.929-.698 1.952-1.288 3.688-1.288 3.224 0 4.759 2.156 4.759 6.017v8.98h-5.069ZM.292 2.5v11.197h11.19v22.378h11.176V13.697h11.19V2.5H.292Zm44.732 22.378V13.697H33.848v22.378H67.39V24.878H45.025ZM67.389 2.5H45.025v11.197h22.365V2.5Z"/></g><defs><clipPath id="clip0_6_95"><path fill="#fff" transform="translate(.292)" d="M0 0h238.333v40H0z"/></clipPath></defs></svg>